<?xml version="1.0" encoding="UTF-8"?>
<svg id="_Слой_2" data-name="Слой 2" xmlns="http://www.w3.org/2000/svg" viewBox="0 0 37.85 47.47">
  <defs>
    <style>
      .cls-1 {
        fill: #e53935;
        stroke: #961b1b;
      }

      .cls-1, .cls-2, .cls-3 {
        stroke-miterlimit: 10;
        stroke-width: .75px;
      }

      .cls-4 {
        fill: #79bf79;
      }

      .cls-2 {
        fill: #845a26;
        stroke: #683b0b;
      }

      .cls-5 {
        fill: #ff6464;
      }

      .cls-3 {
        fill: #4caf50;
        stroke: #3c843c;
      }
    </style>
  </defs>
  <path class="cls-3" d="M18.35,10.82C12.58,10.82,7.9,6.14,7.9.38c2.88,0,5.5,1.16,7.39,3.06,1.89,1.89,3.06,4.5,3.06,7.38h0Z"/>
  <path class="cls-2" d="M19.17,11.24c-.16-.07.04-1.04.32-1.73.95-2.29,3.64-3.42,3.82-3.19.15.19-1.62,1.23-3.33,3.89-.3.46-.67,1.09-.81,1.04Z"/>
  <path class="cls-1" d="M22.48,11.58c10.38,0,17.61,10.3,14.08,20.06l-3.21,8.87c-.27.74-.61,1.42-1.02,2.06-.56.87-1.25,1.64-2.02,2.3h0c-.71.59-1.49,1.09-2.33,1.48-1.96.9-4.21.95-6.24.24-.48-.17-.97-.3-1.47-.37-.45-.08-.9-.11-1.36-.11-.95,0-1.91.16-2.82.49-.68.24-1.37.39-2.08.46-1.41.13-2.85-.1-4.16-.7-2.45-1.13-4.42-3.2-5.38-5.84l-3.21-8.87c-3.52-9.76,3.7-20.06,14.08-20.06h7.12Z"/>
  <path class="cls-5" d="M9.31,14.22c-.16-.19-3.97,1.59-6.18,5.5-1.69,3-1.67,5.87-1.67,7.01.01,1.79.37,3.4.49,3.89.15.64.38,1.31.83,2.64.57,1.66,1.01,2.83,1.9,5.22.46,1.23.71,1.92.86,2.3.12.32.18.49.19.5.62,1.6,2.18,2.84,2.61,3.17,1.3,1,3.28,2.05,3.52,1.73.25-.33-1.6-1.71-3.47-4.37-1.67-2.37-2.44-4.46-3.03-6.07-.97-2.63-2.14-5.8-1.86-9.98.1-1.43.3-3.98,1.76-6.7,1.75-3.24,4.19-4.68,4.06-4.84Z"/>
  <path class="cls-4" d="M8.58.99c-.28.13.23,3.31,2.43,5.8,2.56,2.9,6.35,3.65,6.49,3.37.13-.25-2.67-1.21-5.49-4.27-2.43-2.63-3.19-5.01-3.44-4.9Z"/>
</svg>