<?xml version="1.0" encoding="UTF-8"?>
<svg id="_Слой_1" data-name="Слой 1" xmlns="http://www.w3.org/2000/svg" viewBox="0 0 23.95 47.28">
  <defs>
    <style>
      .cls-1 {
        fill: #fff;
      }

      .cls-2 {
        fill: #e09b2d;
      }

      .cls-2, .cls-3, .cls-4, .cls-5 {
        stroke-width: .75px;
      }

      .cls-2, .cls-3, .cls-4, .cls-5, .cls-6 {
        stroke-miterlimit: 10;
      }

      .cls-2, .cls-5 {
        stroke: #d89830;
      }

      .cls-3 {
        fill: #9ad14b;
        stroke: #8fba43;
      }

      .cls-4 {
        fill: #71a517;
        stroke: #6c961a;
      }

      .cls-7 {
        fill: #333;
      }

      .cls-5 {
        fill: #f7b239;
      }

      .cls-6 {
        fill: #e53935;
        stroke: #cc2525;
      }
    </style>
  </defs>
  <path class="cls-2" d="M22.08,46.9H2c4.04-4.51,7.52-12.4,10.04-22.5,2.52,10.11,6,18,10.04,22.5Z"/>
  <path class="cls-3" d="M23.42,3.22l-1.21,3.84c-1.28.5-2.5,1.11-3.66,1.82-.25-1.26-.85-2.4-1.69-3.3-.04-.04-.08-.09-.12-.13-.87-.89-1.99-1.54-3.23-1.83l2.56-2.88,1.61,1.54,2.06-1.66.92,2.82,2.75-.24Z"/>
  <path class="cls-3" d="M7.92.75l2.58,2.8c-1.31.29-2.48.97-3.37,1.9-.84.88-1.44,1.98-1.69,3.21-1.16-.7-2.39-1.29-3.68-1.77L.53,3.15l2.77.23.92-2.74,2.08,1.61,1.62-1.5Z"/>
  <path class="cls-4" d="M17,5.25c.87.84,1.49,1.9,1.75,3.08-.56.31-1.1.64-1.63.99-.04-.04-.08-.08-.12-.12-.04-.04-.08-.08-.13-.12-1.25-1.15-2.97-1.86-4.87-1.86s-3.74.76-4.99,1.97c-.04.04-.08.08-.12.12-.53-.35-1.07-.68-1.63-.99.26-1.18.88-2.24,1.75-3.08.92-.89,2.13-1.54,3.48-1.82.49-.1.99-.15,1.51-.15s1.03.05,1.51.15c1.29.27,2.45.87,3.35,1.7.04.04.08.08.13.12Z"/>
  <path class="cls-6" d="M17.12,9.57c-1.96,1.46-3.68,3.23-5.12,5.23-1.43-2-3.16-3.77-5.12-5.23.04-.05.08-.09.12-.14,1.25-1.36,3.03-2.21,4.99-2.21s3.62.79,4.87,2.08c.04.04.08.09.13.13.04.05.08.09.12.14Z"/>
  <path class="cls-5" d="M18.75,8.32c1.2-.67,2.47-1.24,3.8-1.7v40.13c-4.24-1.48-7.9-4.06-10.54-7.37,2.84-3.55,4.52-7.94,4.52-12.69s-1.68-9.14-4.52-12.69c1.43-1.79,3.16-3.37,5.12-4.68.53-.35,1.07-.68,1.63-.99Z"/>
  <path class="cls-5" d="M6.89,9.32c1.96,1.31,3.68,2.89,5.12,4.68,2.84,3.55,4.52,7.94,4.52,12.69s-1.68,9.14-4.52,12.69c-2.64,3.31-6.3,5.9-10.54,7.37V6.62c1.33.46,2.6,1.03,3.8,1.7.56.31,1.1.64,1.63.99Z"/>
  <ellipse class="cls-1" cx="8.34" cy="13.8" rx=".89" ry=".82"/>
  <ellipse class="cls-1" cx="13.23" cy="9.34" rx=".89" ry=".82"/>
  <ellipse class="cls-1" cx="20.16" cy="5.19" rx=".89" ry=".82"/>
  <ellipse class="cls-7" cx="18.67" cy="14.48" rx=".89" ry=".82"/>
  <ellipse class="cls-7" cx="6.45" cy="16.41" rx=".89" ry=".82"/>
  <ellipse class="cls-7" cx="10.09" cy="22.59" rx=".89" ry=".82"/>
  <ellipse class="cls-7" cx="10.21" cy="30.82" rx=".89" ry=".82"/>
  <ellipse class="cls-7" cx="6.43" cy="37.02" rx=".89" ry=".82"/>
  <ellipse class="cls-7" cx="18.63" cy="38.88" rx=".89" ry=".82"/>
  <ellipse class="cls-1" cx="18.95" cy="25.42" rx=".89" ry=".82"/>
</svg>