<?xml version="1.0" encoding="UTF-8"?>
<svg id="_Слой_1" data-name="Слой 1" xmlns="http://www.w3.org/2000/svg" viewBox="0 0 17.27 23.55">
  <defs>
    <style>
      .cls-1 {
        fill: #ffc10a;
      }

      .cls-2 {
        fill: #fe9803;
      }
    </style>
  </defs>
  <g id="Files_Folder12" data-name="Files Folder12">
    <g>
      <path class="cls-1" d="M17.27,3.92v17.27c0,1.3-1.06,2.35-2.35,2.35H2.35c-1.3,0-2.35-1.06-2.35-2.35V3.92C0,2.63,1.06,1.57,2.35,1.57h12.56c1.3,0,2.35,1.06,2.35,2.35Z"/>
      <path class="cls-2" d="M12.56,1.57v1.57c0,.86-.71,1.57-1.57,1.57h-4.71c-.86,0-1.57-.71-1.57-1.57v-1.57c0-.86.71-1.57,1.57-1.57h4.71c.86,0,1.57.71,1.57,1.57Z"/>
    </g>
    <g>
      <path class="cls-2" d="M12.56,14.13h-7.85c-.43,0-.78-.35-.78-.78s.35-.78.78-.78h7.85c.43,0,.78.35.78.78s-.35.78-.78.78Z"/>
      <path class="cls-2" d="M11.77,18.84h-6.28c-.43,0-.78-.35-.78-.78s.35-.78.78-.78h6.28c.43,0,.78.35.78.78s-.35.78-.78.78Z"/>
    </g>
  </g>
</svg>