<?xml version="1.0" encoding="UTF-8"?>
<svg id="_Слой_1" data-name="Слой 1" xmlns="http://www.w3.org/2000/svg" viewBox="0 0 47.21 42.17">
  <defs>
    <style>
      .cls-1 {
        stroke: #cecece;
        stroke-miterlimit: 10;
        stroke-width: .75px;
      }

      .cls-1, .cls-2 {
        fill: #e6e6e6;
      }

      .cls-3 {
        fill: #ffcb80;
      }

      .cls-4 {
        fill: #f9f9f9;
      }

      .cls-5 {
        fill: #f7b239;
      }

      .cls-6 {
        fill: #333;
      }
    </style>
  </defs>
  <path class="cls-2" d="M31.86,27.57c-.66.17-1.54-.26-2.21-.34-.94-.11-1.66.27-2.56.42l1.16,2.74c1.17-.85,1.04-2.27,0-3.19-.5-.44-1.11-.65-1.73-.84-.5-.15-.86-.34-1.29-.64-.97-.67-2.06-1.1-3.14-1.57-1.19-.52-2.38-1.04-3.58-1.56l-.36,2.74c.97-.31,1.95-.6,2.94-.86.83-.22,1.68-.48,2.55-.35s1.63.55,2.38.94c.89.45,1.78.9,2.67,1.35l.76-2.8c-1.79.19-3.62-.62-5.31-1.15s-3.4-.87-4.76-1.91c-.64-.49-1.68-.1-2.05.54-.45.77-.11,1.56.54,2.05,1.55,1.19,3.64,1.64,5.48,2.22,1.94.61,4.04,1.48,6.1,1.26.67-.07,1.26-.42,1.45-1.1.17-.61-.1-1.4-.69-1.69-1.89-.96-3.89-2.29-6.01-2.63-2.29-.37-4.69.57-6.85,1.25-1.1.35-1.62,2.19-.36,2.74,1.75.76,3.51,1.49,5.24,2.29.74.35,1.37.83,2.07,1.23.4.23.84.39,1.29.52.09.03.53.23.62.18.11-.05.08.47-.04-.12v-.8l-.03.13.69-.9-.1.07c-1.39,1.01-.56,3.03,1.16,2.74.4-.07.77-.28,1.18-.34.28-.04.57.05.85.12.93.22,1.8.39,2.75.15,1.87-.48,1.08-3.37-.8-2.89h0Z"/>
  <path class="cls-2" d="M21.65,22.95c-.93-.93-1.9-1.87-2.49-3.06-.54-1.12-.45-2.32-.17-3.5s.88-2.18,1.59-3.16c.63-.87,1.33-2.01,2.3-2.52,2.18-1.15,4.71.29,6.42,1.58,1.46,1.11,4.22,2.96,3.67,5.12-.6,2.38-2.33,4.44-4.38,5.71-1.64,1.01-.13,3.61,1.51,2.59,2.61-1.61,4.62-4.06,5.6-6.97,1.16-3.45-1.22-6.18-3.78-8.19-1.34-1.05-2.67-2.1-4.29-2.68-1.53-.56-3.29-.66-4.87-.29s-2.7,1.45-3.67,2.68c-1.05,1.35-2.08,2.7-2.68,4.31-.65,1.73-.93,3.89-.32,5.67.65,1.93,2.03,3.41,3.44,4.83s3.49-.75,2.12-2.12h0Z"/>
  <path class="cls-1" d="M15.28.97c.3.1.6.22.89.34,2.65,1.16,5.57,1.51,8.44,1.14,3.1-.4,6.35-.06,9.48,1.13,9.98,3.78,15.17,14.95,11.63,25.02-3.67,10.41-15.13,15.78-25.46,11.98-6.28-2.31-10.68-7.49-12.27-13.51-.73-2.78-2.16-5.34-4.22-7.35C.63,16.65-.56,11.87,1.17,7.5,3.36,1.94,9.62-.95,15.28.97ZM23,24.5c4.34,1.6,9.16-.62,10.76-4.96,1.6-4.34-.62-9.16-4.96-10.76-4.34-1.6-9.16.62-10.76,4.96s.62,9.16,4.96,10.76Z"/>
  <path class="cls-4" d="M15.55,1.97c.29.1.57.2.84.32,2.49,1.09,5.24,1.42,7.94,1.08,2.92-.37,5.97-.06,8.92,1.06,9.39,3.56,14.28,14.07,10.94,23.54-3.45,9.8-14.24,14.85-23.95,11.27-5.91-2.18-10.05-7.05-11.55-12.71-.69-2.62-2.03-5.03-3.97-6.92-2.96-2.89-4.08-7.38-2.45-11.5C4.34,2.89,10.23.16,15.55,1.97ZM22.82,24.11c4.08,1.51,8.62-.59,10.12-4.67,1.51-4.09-.59-8.62-4.67-10.12s-8.62.59-10.12,4.67.59,8.62,4.67,10.12Z"/>
  <path class="cls-2" d="M15.99,2.55c.28.1.56.2.83.32,2.46,1.08,5.16,1.43,7.81,1.1,2.87-.35,5.87-.02,8.78,1.1,9.25,3.55,14.12,13.9,10.9,23.19-3.33,9.6-13.9,14.5-23.48,10.93-5.82-2.17-9.92-6.98-11.43-12.55-.69-2.58-2.03-4.95-3.94-6.82-2.92-2.86-4.05-7.28-2.48-11.31C4.98,3.38,10.75.74,15.99,2.55ZM23.27,24.34c4.02,1.5,8.47-.53,9.92-4.53s-.63-8.47-4.65-9.97c-4.02-1.5-8.47.52-9.92,4.53s.63,8.47,4.65,9.97Z"/>
  <circle class="cls-6" cx="10.48" cy="14.4" r=".97"/>
  <circle class="cls-6" cx="20.91" cy="30.86" r=".97"/>
  <circle class="cls-6" cx="40.54" cy="17.3" r=".97"/>
  <path class="cls-5" d="M33.76,19.54c-1.6,4.34-6.42,6.56-10.76,4.96-4.34-1.6-6.56-6.42-4.96-10.76s6.42-6.56,10.76-4.96c4.34,1.6,6.56,6.41,4.96,10.76Z"/>
  <path class="cls-3" d="M33.35,19.36c-1.48,4.01-5.93,6.06-9.94,4.59-4.01-1.48-6.06-5.93-4.59-9.94,1.48-4.01,5.93-6.06,9.94-4.59,4.01,1.48,6.06,5.93,4.59,9.94Z"/>
  <path class="cls-5" d="M33.53,19.5c-1.48,4-5.81,6.1-9.68,4.67s-5.81-5.83-4.33-9.83c1.48-4,5.81-6.1,9.68-4.67,3.87,1.43,5.81,5.83,4.33,9.83Z"/>
  <path class="cls-2" d="M40.29,29.04c-.68,1.29-1.26,3.07-2.3,4.12-.44.45-1.08.71-1.6,1.06-.68.47-1.3,1-2,1.44-2.59,1.63-5.84,1.29-8.73.91-1.64-.22-1.81,2.04-.76,2.8.7.5,1.44.83,2.27,1.03l.4-2.95c-.82-.1-1.59.1-2.4.08s-1.53-.47-2.26-.82c-1.64-.77-3.25-1.6-4.78-2.58-1.21-.78-2.96.83-2.05,2.05.79,1.07,1.68,1.93,2.8,2.65,1.41.89,3.15-1.25,1.82-2.36-1.69-1.4-3.75-2.38-5.26-3.99-1.32-1.41-1.49-3.48-2.95-4.77-1.14-1.01-2.82-.03-2.51,1.46.23,1.09.73,1.98,1.47,2.8,1.18,1.31,3.12-.36,2.36-1.82s-.98-3.18-1.33-4.77-3.09-1.3-2.95.4c.1,1.16.2,2.32.3,3.48l2.8-.76c-.52-1.07-.42-2.37-.6-3.52-.21-1.4-.7-2.72-1.19-4.03-.67-1.79-3.58-1.01-2.89.8.54,1.44,1.07,2.89,1.23,4.43.14,1.36.27,2.59.87,3.84.63,1.32,2.92.71,2.8-.76-.1-1.16-.2-2.32-.3-3.48l-2.95.4c.41,1.87.74,3.77,1.63,5.48l2.36-1.82c-.41-.45-.58-.89-.7-1.47l-2.51,1.46c.71.63.93,1.55,1.32,2.39.41.88.97,1.68,1.63,2.38,1.53,1.63,3.56,2.58,5.26,3.99l1.82-2.36c-.67-.42-1.25-.93-1.73-1.57l-2.05,2.05c1.78,1.15,3.68,2.08,5.6,2.97.83.38,1.62.77,2.55.83s1.86-.18,2.8-.07c1.69.2,2.01-2.55.4-2.95-.6-.15-1.05-.37-1.56-.73l-.76,2.8c3.44.45,7.18.6,10.24-1.32.82-.52,1.55-1.16,2.37-1.69.62-.4,1.3-.75,1.83-1.29,1.25-1.26,1.95-3.18,2.77-4.72.9-1.71-1.69-3.23-2.59-1.51h0Z"/>
  <path class="cls-2" d="M34.06,8.7c.07-.06.16-.1.24-.16.12-.1-.29.07,0,0,.02,0,.22-.04.22-.05-.19.02-.23.03-.12.03.04,0,.08,0,.11,0,.17-.01-.31-.09,0,0,.17.05.06.03-.03-.02.17.11.35.21.53.31.25.14.52.24.79.34.11.04.22.08.33.11.04.01.4.14.2.06s.15.08.16.08c.07.04.15.08.22.12.18.1.35.22.52.34-.11-.08-.12-.1-.01,0,.08.07.16.14.23.21.14.13.27.26.4.4.14.15.28.31.4.48-.1-.12-.06-.08,0,.02.07.1.13.19.2.29.51.76.92,1.57,1.33,2.39.35.7,1.4.96,2.05.54.72-.46.92-1.3.54-2.05-.96-1.91-2.02-3.77-3.84-4.99-.46-.31-.96-.53-1.48-.71-.11-.04-.22-.07-.33-.11-.1-.04-.28-.13-.09-.03-.22-.12-.42-.25-.64-.36-1.07-.55-2.45-.54-3.44.19-.63.47-1.01,1.32-.54,2.05.4.62,1.38,1.04,2.05.54h0Z"/>
  <path class="cls-2" d="M30.08,7.84c.96-.06,1.92-.03,2.87.09l-.4-.05c.23.03.45.07.68.11.41.07.79.06,1.16-.15.31-.18.61-.54.69-.9.09-.38.07-.81-.15-1.16-.2-.31-.52-.62-.9-.69-1.3-.23-2.62-.34-3.95-.25-.4.03-.77.15-1.06.44-.26.26-.46.69-.44,1.06s.14.79.44,1.06.66.47,1.06.44h0Z"/>
  <path class="cls-2" d="M40.96,14.49c.05.06.1.11.14.17-.12-.16-.13-.17-.04-.04.08.12.17.24.24.36.14.22.26.44.37.67.06.12.15.26.18.4-.11-.39.02.07.06.15.09.24.18.49.25.73.17.53.31,1.07.45,1.6.07.28.15.56.21.84.04.16.07.33.11.49.02.08.03.17.04.25-.02-.19-.02-.2,0-.02.05.41.14.76.44,1.06.26.26.69.46,1.06.44.74-.03,1.6-.67,1.5-1.5-.16-1.38-.52-2.75-.95-4.06s-1.03-2.58-1.95-3.66c-.51-.6-1.6-.56-2.12,0-.59.64-.54,1.48,0,2.12h0Z"/>
  <path class="cls-2" d="M30.37,7.49c.1-.07.2-.13.31-.18l-.36.15c.06-.02.11-.04.18-.05l-.4.05c.14-.01.27,0,.41.02l-.4-.05c1.04.14,2.08.27,3.12.39.36.04.82-.2,1.06-.44.26-.26.46-.69.44-1.06s-.14-.79-.44-1.06l-.3-.23c-.23-.14-.49-.2-.76-.2-.88-.1-1.77-.21-2.65-.33l.4.05c-.47-.06-.83-.13-1.31-.02-.29.07-.57.21-.81.37-.33.22-.58.51-.69.9-.1.36-.05.84.15,1.16s.51.6.9.69.82.07,1.16-.15h0Z"/>
  <path class="cls-2" d="M29.27,7.65c.46-.06.91-.06,1.37,0l-.4-.05c.63.08,1.26.3,1.9.22.21,0,.4-.04.58-.13.19-.06.35-.16.48-.31.26-.26.46-.69.44-1.06s-.14-.79-.44-1.06c-.27-.25-.68-.49-1.06-.44-.2.02-.39.02-.59,0l.4.05c-.5-.07-.99-.18-1.5-.23-.39-.04-.79-.03-1.18.02-.21,0-.4.04-.58.13-.19.06-.35.16-.48.31-.26.26-.46.69-.44,1.06s.14.79.44,1.06c.27.25.68.49,1.06.44h0Z"/>
  <path class="cls-2" d="M29.17,7.55c1.25.12,2.55.19,3.77-.2.37-.12.7-.35.9-.69s.27-.8.15-1.16-.34-.71-.69-.9-.77-.27-1.16-.15c-.27.09-.55.15-.84.19l.4-.05c-.84.11-1.69.03-2.53-.05-.36-.03-.81.19-1.06.44-.26.26-.46.69-.44,1.06s.14.79.44,1.06.64.4,1.06.44h0Z"/>
  <path class="cls-2" d="M29,7.82c.48-.03.95-.12,1.41-.25.36-.1.71-.21,1.08-.26l-.4.05c.4-.05.8-.05,1.2-.05s.79-.17,1.06-.44.46-.69.44-1.06-.14-.79-.44-1.06-.65-.44-1.06-.44c-.66,0-1.32.03-1.96.17-.5.11-.99.3-1.5.37l.4-.05c-.08,0-.16.02-.24.02-.4.02-.77.15-1.06.44-.26.26-.46.69-.44,1.06s.14.79.44,1.06.66.46,1.06.44h0Z"/>
  <path class="cls-2" d="M29.68,7.44s.08-.04.12-.05l-.36.15c.33-.13.67-.21,1.02-.26l-.4.05c.46-.06.92-.07,1.38-.07.39,0,.79-.16,1.06-.44.26-.26.46-.69.44-1.06s-.14-.79-.44-1.06-.66-.44-1.06-.44c-.45,0-.89.01-1.34.07-.34.04-.68.08-1.01.17s-.64.22-.94.36c-.32.15-.6.57-.69.9-.1.36-.05.84.15,1.16s.51.6.9.69l.4.05c.27,0,.52-.07.76-.2h0Z"/>
  <path class="cls-2" d="M28.88,7.43c1.93,0,1.93-3,0-3s-1.93,3,0,3h0Z"/>
  <path class="cls-2" d="M23.94,37.61l-2.33-.45c-.6-.12-1.15-.19-1.67-.51-.64-.39-1.27-.79-1.9-1.19-.57-.36-1.21-.68-1.73-1.1-.44-.35-.76-.87-1.08-1.31-.44-.61-.88-1.23-1.29-1.86-.39-.59-.78-1.18-1.13-1.79-.26-.46-.59-1.02-.46-1.56.18-.79-.24-1.62-1.05-1.85-.76-.21-1.66.25-1.85,1.05-.44,1.9.51,3.52,1.5,5.06.9,1.41,1.84,2.97,3.01,4.17.56.58,1.29.98,1.96,1.41.74.46,1.48.93,2.22,1.39,1.51.95,3.28,1.11,5,1.44.79.15,1.62-.22,1.85-1.05.2-.74-.25-1.69-1.05-1.85h0Z"/>
  <path class="cls-2" d="M30.74,7.66c.14-.05.28-.09.42-.13.34-.09-.31,0,.04,0,.26-.01.52-.02.78-.01s.52.02.77.03c.31.01-.3-.07.09.01.12.03.24.06.36.1.58.19,1.08.4,1.7.45.06,0,.25.04.31.02-.13,0-.25-.03-.36-.1.14.09.12.07-.04-.05.21.16.42.33.62.5.32.26.63.44,1.06.44.37,0,.81-.16,1.06-.44.5-.54.65-1.6,0-2.12-.23-.19-.47-.38-.71-.56-.48-.38-.92-.59-1.53-.65-.05,0-.4,0-.42-.02.23.03.26.03.09,0-.07-.02-.13-.04-.2-.06-.27-.08-.52-.2-.79-.29-.65-.21-1.35-.24-2.02-.25s-1.4.01-2.04.26c-.37.14-.69.33-.9.69-.19.32-.27.8-.15,1.16.23.71,1.06,1.35,1.85,1.05h0Z"/>
  <path class="cls-2" d="M29.33,7.4c-.37.16,0,0,.09-.03.12-.04.24-.08.36-.12.21-.06.42-.11.63-.16.07-.01.14-.03.21-.04.17-.03.14-.02-.08,0,.08-.04.23-.02.32-.03.24-.02.48-.02.72-.01s.49.02.73.05c.07,0,.27.06.34.04-.21-.03-.23-.03-.06,0,.06,0,.11.02.17.02.21.03.42.06.62.11.06.02.2.09.26.08-.22-.1-.26-.11-.12-.03-.18-.15-.21-.18-.09-.07.58.53,1.56.62,2.12,0,.53-.58.62-1.56,0-2.12-.52-.48-1.14-.73-1.83-.84s-1.34-.2-2.02-.23c-1.36-.05-2.65.25-3.88.79-.32.14-.6.57-.69.9-.1.36-.05.84.15,1.16s.51.6.9.69c.42.1.77.02,1.16-.15h0Z"/>
  <path class="cls-2" d="M28.01,7.25l4.22-.17v-3l-1.6.13c-.48.04-.96.09-1.43.03l.4.05c-.18-.03-.35-.07-.52-.13l-.8,2.89c.53.09.93.08,1.46-.01.28-.05.56-.13.85-.18l-.4.05c.35-.04.68.03,1.02.05.44.02.88-.1,1.32-.17l-.4.05c.12-.02.24-.02.36-.02l-.4-.05c.06,0,.12.02.18.03l.4-2.95c-.82.06-1.64.11-2.46.17-.41.03-.82.06-1.23.08-.38.03-.78.08-1.16.05l.4.05c-.12-.02-.23-.04-.35-.09v2.89c.53-.11,1.06-.2,1.6-.28l-.4.05c.59-.08,1.18-.13,1.77-.16s1.17-.07,1.73,0l-.4-.05-.26-.11-.54-.54.03.04-.2-.76v.04c0,.78.68,1.54,1.5,1.5s1.51-.66,1.5-1.5c0-.73-.47-1.35-1.17-1.55-.32-.09-.68-.09-1.01-.09-.51,0-1.02,0-1.52.04-1.15.07-2.29.23-3.42.47-.62.13-1.13.82-1.1,1.45.03.71.46,1.2,1.1,1.45.48.18,1,.16,1.5.12.46-.03.92-.06,1.38-.1.91-.06,1.81-.12,2.72-.19.75-.05,1.37-.53,1.47-1.3.1-.71-.34-1.47-1.07-1.65-.66-.16-1.23-.02-1.88.09l.4-.05c-.43.05-.84-.08-1.26-.05-.52.04-1,.19-1.51.26l.4-.05c-.15.02-.29.02-.44,0l.4.05-.09-.02c-.41-.07-.79-.06-1.16.15-.31.18-.61.54-.69.9-.19.84.26,1.56,1.05,1.85.64.23,1.34.23,2.01.18s1.3-.11,1.95-.16c.4-.03.77-.14,1.06-.44.26-.26.46-.69.44-1.06-.04-.79-.66-1.53-1.5-1.5l-4.22.17c-.78.03-1.54.67-1.5,1.5.04.79.66,1.53,1.5,1.5h0Z"/>
</svg>