<?xml version="1.0" encoding="UTF-8"?>
<svg id="_Слой_1" data-name="Слой 1" xmlns="http://www.w3.org/2000/svg" viewBox="0 0 57.79 59.83">
  <defs>
    <style>
      .cls-1 {
        fill: #fff;
      }

      .cls-2 {
        fill: #4caf50;
      }
    </style>
  </defs>
  <path class="cls-2" d="M34.91,58.4c.03.25.39.89.33,1.1-.04.14-.17.14-.27.18-.95.39-3.4-.1-4.43-.37-1.98-.52-3.43-1.77-5.51-1.09-2.87.95-4.36,2-7.67,1.43-6.31-1.11-12.59-10.88-14.88-16.39C-1.73,33.18-1.53,18.93,10.72,15c4.69-1.5,8.9.03,13.46,1.12-1.51-4.43-4.05-10.57-9.05-11.9-1.58-.42-4.02-.18-4.33-2.37S13.43.11,14.83.4c4.15.86,7.17,3.73,9.27,7.27l2.05,4.1c1.05-5.69,5.6-10.4,11.32-11.47,1.17-.22,3.52-.82,3.71.8.55,4.87-2.65,10.57-6.96,12.81l-2.64,1.32c1.77-.27,3.5-.8,5.3-.9,7.38-.4,13.57,4.17,15.44,11.26.64,2.41.92,7.45.14,9.79-.29.88-.91.4-1.67.51v-6.42c0-2.19-2.52-3.92-4.52-4.08-1.87-.15-4.95-.13-6.82,0-2.03.14-4.52,1.89-4.52,4.08v6.31h-5.98c-2.17,0-4.05,2.35-4.19,4.41s-.17,5.57,0,7.6c.14,1.57,1.35,3.09,2.76,3.72.21.09,1.18.46,1.32.46h6.09v6.42Z"/>
  <path class="cls-1" d="M46.58,29.3c.17.05.26.33.28.5.35,2.61-.26,6.02,0,8.72.07.71.31,1.08,1.06,1.17,2.74.33,6.13-.25,8.94,0,.51.04.77.17.84.73.26,2.09-.18,4.75-.03,6.9-.09.52-.42.78-.93.85-2.61.37-6.01-.25-8.71,0-.64.06-1.09.26-1.17.95-.32,2.75.27,6.17.06,8.94-.04.47-.33.67-.78.73-1.38.16-4.16.09-5.59,0-.75-.05-1.54-.04-1.81-.87l-.02-8.92c-.07-.61-.39-.79-.95-.84-2.7-.24-5.75.2-8.49,0-.46-.08-.68-.38-.74-.83-.25-2.18.2-4.82,0-7.05.17-.88.82-.59,1.4-.6,2.38-.04,5.45.25,7.71,0,.69-.08,1-.24,1.07-.94.25-2.74-.32-6.02,0-8.72.03-.28.18-.46.23-.72h7.65Z"/>
</svg>