<?xml version="1.0" encoding="UTF-8"?>
<svg id="_Слой_1" data-name="Слой 1" xmlns="http://www.w3.org/2000/svg" viewBox="0 0 21.53 23.78">
  <defs>
    <style>
      .cls-1 {
        fill: #e53935;
        stroke: #961b1b;
        stroke-miterlimit: 133.33;
        stroke-width: .5px;
      }

      .cls-2 {
        fill: #ff6464;
      }

      .cls-3 {
        fill: #ffc673;
      }

      .cls-4 {
        fill: #fbc02d;
        isolation: isolate;
      }
    </style>
  </defs>
  <path class="cls-1" d="M21.28,12.54c0,8.8-7.48,11-11.22,11C6.79,23.53.25,21.33.25,12.54c0-3.44,1.81-5.75,3.54-7.07.96-.73,2.19,0,2.31,1.2l.11,1.04c.13,1.26,1.28,2.3,2.34,1.61,2.08-1.35,2.83-4.61,2.83-6.39v-.4c0-1.77,1.79-2.91,3.22-1.87,3.17,2.29,6.68,6.29,6.68,11.89Z"/>
  <path class="cls-4" d="M6.44,18.81c0,3.52,3.08,4.4,4.62,4.4,1.35,0,4.04-.88,4.04-4.4,0-1.36-.73-2.28-1.43-2.81-.49-.37-1.18-.04-1.35.55-.22.77-1.02,1.26-1.42.56-.37-.63-.37-1.58-.37-2.16,0-.79-.79-1.3-1.43-.83-1.28.93-2.65,2.5-2.65,4.68Z"/>
  <path class="cls-2" d="M4.59,5.83c-.24-.17-1.35.86-2.07,1.84-1.6,2.17-1.65,4.51-1.66,5.42,0,.75.01,3.3,1.69,5.72,1.94,2.78,5.04,3.87,5.12,3.74.05-.08-1.1-.66-2.37-1.96-.7-.72-3.47-3.72-3.54-7.39-.08-4.08,3.22-7.09,2.82-7.37Z"/>
  <path class="cls-3" d="M9.08,14.61c-.11-.09-.82.51-1.32,1.2-.27.37-.96,1.42-.95,2.91,0,.48,0,1.39.59,2.3.79,1.23,2.16,1.69,2.23,1.59.05-.07-.58-.42-1.2-1.25-.13-.17-.94-1.28-1.08-2.49-.25-2.25,1.93-4.1,1.74-4.26Z"/>
</svg>