<?xml version="1.0" encoding="UTF-8"?>
<svg id="_Слой_1" data-name="Слой 1" xmlns="http://www.w3.org/2000/svg" viewBox="0 0 23.52 23.52">
  <defs>
    <style>
      .cls-1 {
        fill: #fff;
      }

      .cls-2 {
        fill: #4caf50;
      }

      .cls-3 {
        fill: #ff5c5c;
      }

      .cls-4 {
        fill: #e53935;
        stroke: #961b1b;
        stroke-miterlimit: 15.62;
        stroke-width: .5px;
      }

      .cls-5 {
        fill: #fbc02d;
      }

      .cls-6 {
        fill: #ffd473;
      }

      .cls-7 {
        fill: #57d357;
      }
    </style>
  </defs>
  <circle class="cls-4" cx="11.76" cy="11.76" r="11.51"/>
  <circle class="cls-5" cx="11.76" cy="11.76" r="8.56"/>
  <circle class="cls-1" cx="11.76" cy="11.76" r="5.02"/>
  <path class="cls-2" d="M14.49,10.75l-2.6,2.6c-.23.22-.6.22-.83,0l-1.38-1.38c-.23-.23-.23-.61,0-.84.23-.23.61-.23.84,0h0l.75.75c.12.12.3.12.42,0l1.97-1.97c.23-.23.6-.24.83-.01.23.23.24.6.01.83,0,0,0,0-.01.01h0Z"/>
  <path class="cls-3" d="M10.34.88c.03.07-2.02.49-4,1.96-1.7,1.27-4.68,4.31-4.71,8.88-.03,3.74,1.93,6.76,3.97,8.45,2.92,2.42,6.42,2.45,6.4,2.52-.02.07-3.96.29-7.3-2.52C.96,17.02.87,12.49.87,11.8c0-.34.07-5.3,3.97-8.52C7.36,1.19,10.31.8,10.34.88Z"/>
  <path class="cls-6" d="M9.95,3.79c.03.06-1.5.51-2.93,1.79-.48.43-3.07,2.72-2.98,6.26.07,3.07,2.1,5.06,2.74,5.69,1.96,1.92,4.2,2.39,4.16,2.48-.04.1-2.7-.26-4.79-2.27-2.53-2.42-2.6-5.66-2.6-5.93,0-.33.03-3.68,2.65-6.08,1.71-1.56,3.73-2,3.77-1.93Z"/>
  <path class="cls-7" d="M11.68,13.37s-.09.02-.14.03c-.21.01-.37-.12-.42-.17l-1.38-1.38s-.1-.14-.11-.26c-.04-.31.24-.56.27-.54.02.01-.17.24-.11.52.03.13.1.21.16.28.27.3.51.51.67.65.4.37.46.51.81.73.1.06.19.11.25.14Z"/>
</svg>