<?xml version="1.0" encoding="UTF-8"?>
<svg id="_Слой_1" data-name="Слой 1" xmlns="http://www.w3.org/2000/svg" viewBox="0 0 142.86 38.77">
  <defs>
    <style>
      .cls-1 {
        fill: #fff;
      }
    </style>
  </defs>
  <path class="cls-1" d="M5.9,19.51h15.13l.42-12.38c.4-.6,3.65-.5,4.41-.36.88.16,1.19.56,1.18,1.46l-.05,29.2c-.15.46-.37.86-.87.95-.54.1-3.51.1-4.05,0-.22-.04-.72-.35-.72-.5v-12.99l-.3-.3H6.2l-.3.3v12.99c0,.15-.49.46-.72.5-.56.11-3.69.11-4.25,0-.68-.13-.95-.9-.93-1.51L.06,7.88l.36-.86c.78-.43,5.48-.62,5.48.4v12.08Z"/>
  <path class="cls-1" d="M112.09,18.09c5.58-5.25,14.4-3.57,15.03,4.97.35,4.69-.24,9.84-.05,14.58-.04.21-.18.55-.36.66-.43.25-5.08.29-5.08-.41v-12.99c0-.68-.34-2.16-.64-2.82-1.11-2.49-4.62-3.13-6.78-1.55-3.85,2.82-1.38,12.77-2.22,17.06-.1.2-.22.49-.4.61-.47.33-4.69.35-5.01-.15l-.18-30.42c.05-.08.14-.22.28-.36,1.13-1.23,3.61-1.47,4.87-.33.17.16.36.38.53.69v10.46Z"/>
  <path class="cls-1" d="M56.56,22.35c-1.04-.33.53-3.46,1.01-4.07,4.01-5.13,18.1-4.59,18.39,3.75l-.11,15.74c-.38,1-4.7.72-4.99.28-.42-.66-.07-1.56-.02-2.24.06-.92-.59.28-.66.35-3.77,3.84-14.25,3.6-14.94-2.74-.56-5.12,2.14-7.89,7.03-8.61,2.16-.32,4.77-.04,6.82-.69,2.8-.89,1.33-3.89-.85-4.52-2.55-.74-5.89-.03-6.81,2.75h-4.87ZM70.37,27.23c-2.16,1.64-8.98.25-9.6,3.6-.98,5.31,7.82,4.7,9.45-.09.17-.49.85-3.46.15-3.5Z"/>
  <path class="cls-1" d="M52.37,28.41l-16.22.23c.04,4.27,4.55,6.97,8.4,5.25,1.41-.63,1.43-1.18,2.08-2.38.31-.11,4.19-.11,4.64-.02,1.56.3-.17,2.86-.71,3.54-3.64,4.62-11.45,4.81-15.93,1.32-6.04-4.71-5.46-16.39,1.51-20,8.67-4.49,18.17,2.46,16.22,12.06ZM46.91,24.59c-.29-7.12-10.32-7.18-10.56,0h10.56Z"/>
  <path class="cls-1" d="M97.67,15.35c.07.02,1.92,0,2.92.06.85.06,1.62.16,2.31.29.29,1.29.64,3.32-.26,4.42h-4.97c.24,3.5-.32,7.42,0,10.87.31,3.43,2.45,2.58,5.1,2.82.38.97.74,4.34-.53,4.58-.78.15-3.18.08-4.05,0-3.42-.3-5.9-2.22-6.2-5.78-.33-3.89.29-8.22-.02-12.16,0,0-2.97-.02-3.44-.62-.42-.53-.19-3.39.02-4.18,1.11-.09,3.41-.29,3.45-.3v-5.48s.31-.36.41-.4c.63-.3,4.63-.31,5.28.4v5.48Z"/>
  <path class="cls-1" d="M85.9,37.88c-.06.2-.48.46-.72.5-.59.11-4.03.07-4.43-.18-.2-.12-.24-.35-.29-.56l-.06-29.41c-.16-2.25,4.4-1.79,5.49-.8v30.46Z"/>
  <path class="cls-1" d="M135.53,11.79c-.01,1.98-.03,3.96-.04,5.94-.08.12-.21.27-.4.42-1.07.88-3,.8-3.93-.17-.14-.15-.24-.3-.3-.4v-5.79c-1.98,0-3.95-.02-5.93-.03-.23-.04-.47-.12-.7-.29-1.11-.82-1.1-3.29.01-4.25.42-.36,1.35-.38,3.2-.39.57,0,1.74-.01,3.42-.02V.92c.12-.12.31-.3.59-.47,1.03-.63,2.42-.58,3.44-.01.29.16.51.35.65.48v5.89c1.14,0,2.2,0,3.16.02,2.62.04,3.37.12,3.81.69.25.33.28.79.33,1.71.04.79.1,1.82-.54,2.31-.2.15-.41.21-.57.24h-6.19Z"/>
</svg>