<?xml version="1.0" encoding="UTF-8"?>
<svg id="_Слой_1" data-name="Слой 1" xmlns="http://www.w3.org/2000/svg" viewBox="0 0 46.77 47.32">
  <defs>
    <style>
      .cls-1 {
        fill: #e6e6e6;
        stroke: #c9c9c9;
      }

      .cls-1, .cls-2, .cls-3, .cls-4 {
        stroke-miterlimit: 10;
        stroke-width: .75px;
      }

      .cls-5 {
        fill: #fff;
      }

      .cls-2 {
        stroke: #c62a2a;
      }

      .cls-2, .cls-4 {
        fill: #e53935;
      }

      .cls-3 {
        fill: #9ad14b;
        stroke: #8fba43;
      }

      .cls-4 {
        stroke: #cc2525;
      }

      .cls-6 {
        fill: #ff6464;
      }
    </style>
  </defs>
  <path class="cls-3" d="M41.56,19.25L24.29,6.75c-.32-.84-.8-1.6-1.43-2.24-.26-.27-.54-.5-.84-.7v-.39c.3-.37.63-.66,1.01-.75,1.26-.3,2.6,1.67,3.86,1.7,1.26.03,2.85-1.88,4.07-1.52,1.2.35,1.64,2.85,2.75,3.53,1.08.66,3.19-.3,4.14.66s.4,3.5,1.1,4.65c.72,1.19,2.93,1.37,3.38,2.7.47,1.35-.97,3.42-.78,4.86Z"/>
  <path class="cls-3" d="M34.23,6.77l-22.07,4.23c-.8-.38-1.68-.59-2.6-.58-.39,0-.76.05-1.13.13l-.26-.29c.02-.54.11-1.02.36-1.39.84-1.23,3.19-.79,4.24-1.79,1.05-.99,1.13-3.72,2.36-4.42,1.21-.69,3.16.87,4.5.5,1.3-.36,2.41-2.78,3.8-2.8s2.56,2.36,3.86,2.68c1.35.33,3.26-1.29,4.48-.64,1.24.66,1.39,3.39,2.46,4.35Z"/>
  <path class="cls-3" d="M36.07,17.29l-22.1-4.07c-.65-.66-1.43-1.17-2.31-1.5-.37-.14-.74-.23-1.11-.29l-.16-.36c.16-.5.38-.93.72-1.19,1.13-.86,3.24.41,4.51-.14,1.26-.55,2.1-3.11,3.45-3.33,1.33-.21,2.75,1.98,4.13,2.12,1.33.14,3.05-1.75,4.37-1.26s1.78,3.18,2.93,3.96c1.19.81,3.45-.03,4.43,1.04.99,1.08.38,3.73,1.14,5.02Z"/>
  <path class="cls-3" d="M36.25,17.18l-23.49,3.3c-.83-.42-1.76-.66-2.73-.68-.41-.01-.81.02-1.2.08l-.26-.3c.04-.54.14-1.02.42-1.38.92-1.2,3.4-.66,4.55-1.6,1.14-.94,1.32-3.67,2.63-4.32,1.3-.64,3.31,1.01,4.74.69,1.39-.3,2.64-2.68,4.11-2.64s2.63,2.47,4,2.85c1.42.39,3.49-1.15,4.76-.45,1.29.72,1.36,3.45,2.47,4.45Z"/>
  <path class="cls-4" d="M13.91,12.25c1.27,1.37,2.07,3.32,2.07,5.48H3.02c0-3.58,2.18-6.58,5.1-7.31.09-.02.17-.04.26-.06.37-.07.74-.11,1.12-.11.92,0,1.79.22,2.58.61.68.34,1.3.81,1.84,1.39Z"/>
  <path class="cls-2" d="M31.62,14.07c1.11-2.28,3.23-3.82,5.65-3.82.48,0,.94.06,1.38.17,2.92.73,5.1,3.73,5.1,7.31h-12.96c0-1.33.3-2.58.83-3.66Z"/>
  <rect class="cls-1" x="13.46" y="41.7" width="19.86" height="5.24"/>
  <path class="cls-1" d="M43.75,17.73h2.64c0,10.57-5.34,19.69-13.08,23.97H13.46C5.72,37.42.38,28.3.38,17.73h43.38Z"/>
  <path class="cls-5" d="M1.46,18.72c-.16.05-.03,7.62,4.27,14.39,3.42,5.4,7.96,7.88,8.07,7.71.12-.18-4.54-3.13-8.16-9.51C1.96,24.79,1.61,18.67,1.46,18.72Z"/>
  <rect class="cls-5" x="14.09" y="42.36" width=".35" height="3.88"/>
  <path class="cls-6" d="M8.42,11.29c-.08-.15-1.76.44-3.02,2.03-1.3,1.63-1.65,3.7-1.51,3.77.13.07.62-1.55,2.12-3.4,1.33-1.64,2.48-2.27,2.42-2.4Z"/>
  <path class="cls-6" d="M36.21,11.3c-.09-.16-1.77.45-3.02,2.03-1.29,1.63-1.66,3.69-1.51,3.77.14.08.64-1.45,2.14-3.32,1.35-1.69,2.47-2.34,2.39-2.48Z"/>
</svg>