<?xml version="1.0" encoding="UTF-8"?>
<svg id="_Слой_1" data-name="Слой 1" xmlns="http://www.w3.org/2000/svg" viewBox="0 0 20.35 23.66">
  <defs>
    <style>
      .cls-1 {
        fill: #dbdbdb;
      }

      .cls-2 {
        fill: #bdbdbd;
        stroke: #606060;
        stroke-miterlimit: 15.62;
        stroke-width: .5px;
      }
    </style>
  </defs>
  <g>
    <path class="cls-2" d="M7.28,11.36c.46,3.03-.38,4.69-2.73,5.04-2.62.39-3.7-1.37-4.15-4.4C-.22,7.92,1.22,5.38,3.27,5.22c1.87-.15,3.55,3.11,4.01,6.14Z"/>
    <path class="cls-2" d="M8.5,19.76c.16,1.72-.77,3.33-2.17,3.6-1.42.28-3.03-.85-3.36-2.54s.92-1.79,2.45-2.08,2.89-1.05,3.09,1.02Z"/>
    <path class="cls-2" d="M13.07,6.39c-.46,3.03.38,4.69,2.73,5.04,2.62.39,3.7-1.37,4.15-4.4.61-4.08-.83-6.63-2.88-6.78-1.88-.14-3.55,3.11-4.01,6.14Z"/>
    <path class="cls-2" d="M11.85,14.8c-.16,1.72.77,3.33,2.17,3.6,1.42.28,3.03-.85,3.36-2.54s-.92-1.79-2.45-2.08-2.89-1.05-3.09,1.02Z"/>
  </g>
  <path class="cls-1" d="M2.42,5.93c-.06-.05-.64.49-1.04,1.1-.86,1.3-.77,2.79-.69,4.17.03.64.13,1.51.46,2.43.06.16.22.59.52,1.1.25.41.43.71.78.96.44.31.99.42,1.04.32.05-.1-.4-.39-.67-.61-1.32-1.08-1.53-3.06-1.65-4.23-.1-.98-.24-2.37.43-3.82.36-.77.87-1.37.81-1.42Z"/>
  <path class="cls-1" d="M16.91.73c-.05-.07-.6.22-.98.49-1.21.87-1.65,2.25-2.03,3.44-.37,1.17-.43,2.06-.48,2.76-.02.26-.04.68.03,1.22.06.46.11.82.33,1.19.37.62,1.01.95,1.08.88.05-.06-.33-.37-.62-.99-.07-.15-.25-.57-.31-1.32-.14-1.71.45-3.52.49-3.65.3-.9.7-2.1,1.74-3.18.33-.35.81-.77.75-.84Z"/>
  <path class="cls-1" d="M3.66,19.61s-.17.11-.24.23c-.31.47-.06,1.14.04,1.39.05.15.34.87,1.12,1.39.52.35,1.1.5,1.12.44.05-.09-1.34-.58-1.94-1.74-.12-.23-.33-.63-.26-1.1.05-.31.21-.59.16-.62Z"/>
  <path class="cls-1" d="M12.98,13.85s-.26-.01-.43.09c-.37.24-.36.86-.36,1.29,0,.44.02,1.17.52,1.89.42.59.98.9,1.01.86.04-.05-.82-.6-1.17-1.68-.18-.53-.15-.97-.13-1.32.03-.6.18-.79.26-.88.14-.15.32-.22.3-.26Z"/>
</svg>