<?xml version="1.0" encoding="UTF-8"?>
<svg id="_Слой_1" data-name="Слой 1" xmlns="http://www.w3.org/2000/svg" viewBox="0 0 17.21 23.51">
  <defs>
    <style>
      .cls-1 {
        fill: #54c0eb;
        stroke: #004e66;
        stroke-miterlimit: 15.62;
        stroke-width: .5px;
      }

      .cls-2 {
        fill: #84dbff;
      }
    </style>
  </defs>
  <path class="cls-1" d="M8.46,23.26h.29c4.52,0,8.29-3.63,8.21-8.15,0-.58-.09-1.12-.2-1.64-.52-2.28-3.11-4.9-4.98-7.72C9.81,3.05,8.6.17,8.6.25c-.03-.06-1.24,2.82-3.17,5.5C3.59,8.58.97,11.23.45,13.44c-.14.52-.2,1.07-.2,1.64-.09,4.52,3.69,8.18,8.21,8.18Z"/>
  <g>
    <path class="cls-2" d="M3.07,18.92c.43-.03.69-.43.52-.78-.23-.52-.43-1.07-.52-1.64-.12-.58-.14-1.12-.12-1.67.09-2.3,2.3-5.41,3.72-8.53.14-.26.26-.55.37-.81-.06.09-.12.17-.17.23-1.9,2.91-4.61,5.67-5.1,7.92-.12.52-.17,1.09-.17,1.67.03,1.21.35,2.3.89,3.31.14.2.35.32.58.29h0Z"/>
    <ellipse class="cls-2" cx="3.88" cy="19.81" rx=".66" ry=".6" transform="translate(-.83 .18) rotate(-2.41)"/>
  </g>
</svg>